<svg width="75" height="40" viewBox="0 0 75 40" fill="none" xmlns="http://www.w3.org/2000/svg">
<g filter="url(#filter0_d_407_207)">
<rect opacity="0.8" x="4" width="67" height="32" rx="8" fill="white"/>
<path d="M22.5516 8.90849C22.735 8.53687 23.265 8.53687 23.4484 8.90849L25.2348 12.5282C25.3076 12.6758 25.4484 12.7781 25.6113 12.8017L29.6059 13.3822C30.016 13.4418 30.1797 13.9458 29.883 14.235L26.9925 17.0526C26.8746 17.1675 26.8208 17.333 26.8487 17.4952L27.531 21.4736C27.6011 21.8821 27.1724 22.1935 26.8055 22.0007L23.2327 20.1223C23.087 20.0457 22.913 20.0457 22.7673 20.1223L19.1945 22.0007C18.8276 22.1935 18.3989 21.8821 18.469 21.4736L19.1513 17.4951C19.1792 17.333 19.1254 17.1675 19.0075 17.0526L16.117 14.235C15.8203 13.9458 15.984 13.4418 16.3941 13.3822L20.3887 12.8017C20.5516 12.7781 20.6924 12.6758 20.7652 12.5282L22.5516 8.90849Z" fill="#EFC968"/>
<path d="M35.64 19.056V18.224L41.576 10.8H42.856L36.968 18.224L36.344 18.032H45.352V19.056H35.64ZM41.96 22V19.056L41.992 18.032V15.44H43.112V22H41.96ZM47.5866 22.08C47.352 22.08 47.1493 21.9947 46.9786 21.824C46.8186 21.6533 46.7386 21.4453 46.7386 21.2C46.7386 20.944 46.8186 20.736 46.9786 20.576C47.1493 20.416 47.352 20.336 47.5866 20.336C47.8213 20.336 48.0186 20.416 48.1786 20.576C48.3493 20.736 48.4346 20.944 48.4346 21.2C48.4346 21.4453 48.3493 21.6533 48.1786 21.824C48.0186 21.9947 47.8213 22.08 47.5866 22.08ZM54.5255 22.096C53.6295 22.096 52.8562 21.968 52.2055 21.712C51.5655 21.456 51.0695 21.088 50.7175 20.608C50.3762 20.1173 50.2055 19.5413 50.2055 18.88C50.2055 18.24 50.3708 17.696 50.7015 17.248C51.0428 16.7893 51.5335 16.4373 52.1735 16.192C52.8242 15.9467 53.6082 15.824 54.5255 15.824C55.4322 15.824 56.2108 15.9467 56.8615 16.192C57.5122 16.4373 58.0082 16.7893 58.3495 17.248C58.7015 17.696 58.8775 18.24 58.8775 18.88C58.8775 19.5413 58.7015 20.1173 58.3495 20.608C57.9975 21.088 57.4962 21.456 56.8455 21.712C56.1948 21.968 55.4215 22.096 54.5255 22.096ZM54.5255 21.12C55.5175 21.12 56.2908 20.9173 56.8455 20.512C57.4108 20.1067 57.6935 19.5573 57.6935 18.864C57.6935 18.1707 57.4108 17.6267 56.8455 17.232C56.2908 16.8267 55.5175 16.624 54.5255 16.624C53.5335 16.624 52.7602 16.8267 52.2055 17.232C51.6508 17.6267 51.3735 18.1707 51.3735 18.864C51.3735 19.5573 51.6508 20.1067 52.2055 20.512C52.7602 20.9173 53.5335 21.12 54.5255 21.12ZM54.5255 16.48C53.6935 16.48 52.9842 16.368 52.3975 16.144C51.8215 15.92 51.3788 15.6 51.0695 15.184C50.7602 14.7573 50.6055 14.2507 50.6055 13.664C50.6055 13.0453 50.7655 12.5173 51.0855 12.08C51.4162 11.632 51.8748 11.2907 52.4615 11.056C53.0482 10.8213 53.7362 10.704 54.5255 10.704C55.3148 10.704 56.0028 10.8213 56.5895 11.056C57.1868 11.2907 57.6508 11.632 57.9815 12.08C58.3122 12.5173 58.4775 13.0453 58.4775 13.664C58.4775 14.2507 58.3228 14.7573 58.0135 15.184C57.7042 15.6 57.2508 15.92 56.6535 16.144C56.0668 16.368 55.3575 16.48 54.5255 16.48ZM54.5255 15.712C55.4002 15.712 56.0828 15.5307 56.5735 15.168C57.0642 14.8053 57.3095 14.32 57.3095 13.712C57.3095 13.072 57.0535 12.576 56.5415 12.224C56.0402 11.8613 55.3682 11.68 54.5255 11.68C53.6828 11.68 53.0108 11.8613 52.5095 12.224C52.0082 12.576 51.7575 13.0667 51.7575 13.696C51.7575 14.3147 51.9975 14.8053 52.4775 15.168C52.9682 15.5307 53.6508 15.712 54.5255 15.712Z" fill="#262729"/>
</g>
<defs>
<filter id="filter0_d_407_207" x="0" y="0" width="75" height="40" filterUnits="userSpaceOnUse" color-interpolation-filters="sRGB">
<feFlood flood-opacity="0" result="BackgroundImageFix"/>
<feColorMatrix in="SourceAlpha" type="matrix" values="0 0 0 0 0 0 0 0 0 0 0 0 0 0 0 0 0 0 127 0" result="hardAlpha"/>
<feOffset dy="4"/>
<feGaussianBlur stdDeviation="2"/>
<feComposite in2="hardAlpha" operator="out"/>
<feColorMatrix type="matrix" values="0 0 0 0 0 0 0 0 0 0 0 0 0 0 0 0 0 0 0.25 0"/>
<feBlend mode="normal" in2="BackgroundImageFix" result="effect1_dropShadow_407_207"/>
<feBlend mode="normal" in="SourceGraphic" in2="effect1_dropShadow_407_207" result="shape"/>
</filter>
</defs>
</svg>
